<?xml version="1.0" encoding="utf-8"?>
<!-- Generator: Adobe Illustrator 23.0.1, SVG Export Plug-In . SVG Version: 6.00 Build 0)  -->
<svg version="1.1" id="Layer_1" xmlns="http://www.w3.org/2000/svg" xmlns:xlink="http://www.w3.org/1999/xlink" x="0px" y="0px"
	 viewBox="0 0 512 512" style="enable-background:new 0 0 512 512;" xml:space="preserve">
<style type="text/css">
	.st0{fill:#F4C0A3;}
	.st1{fill:#C92888;}
	.st2{fill:#F76CAE;}
	.st3{fill:#EB927A;}
	.st4{fill:#F2EFEA;}
	.st5{fill:#DBDADC;}
</style>
<path class="st0" d="M347.2,478v17.1c-1.3,0.5-2.7,1-4.1,1.5c-2.3,0.8-4.5,1.6-6.8,2.4c-12.5,4.2-25.5,7.4-38.8,9.6
	c-13.6,2.2-27.6,3.4-41.8,3.4c-14.2,0-28.2-1.2-41.8-3.4c-13.1-2.1-25.8-5.3-38.1-9.3c-0.3-0.1-0.5-0.2-0.8-0.3
	c-2.1-0.7-4.1-1.4-6.2-2.1V478H347.2z"/>
<path class="st1" d="M341.5,493.3c-48.5,4.1-97.1,4.9-145.6,2.4c-12.3-0.6-24.5-1.4-36.8-2.4c-6.7-46.2-6.7-92.3,0-138.5
	c60.8-5.1,121.6-5.1,182.4,0c1.6,11.4,2.9,22.7,3.7,34C347.8,423.7,346.5,458.5,341.5,493.3z"/>
<path class="st2" d="M341.5,493.3c-48.5,4.1-97.1,4.9-145.6,2.4c-2.2-29.5-1.6-59.1,1.7-88.6c1-9.2,8.5-16.4,17.8-17.1
	c43.3-3,86.6-3.4,129.8-1.2C347.8,423.7,346.5,458.5,341.5,493.3z"/>
<path class="st0" d="M397.9,182.9c-8.3,15-8.3,48.4-8.3,48.8c0,0-0.6,129.6-94.2,129.6c-35,0-84.2,0-84.2,0
	c-69.1,0-108.1-70.7-108.1-131.5V76.6c0-15.6,12.7-28.3,28.3-28.3c7.8,0,14.9,3.2,20,8.3c5.1,5.1,8.3,12.2,8.3,20v69.1
	c0-15.6,12.7-28.3,28.3-28.3s28.3,12.7,28.3,28.3v-13.5c0-15.6,12.7-28.3,28.3-28.3c15.6,0,28.3,12.7,28.3,28.3V28.9
	c0-15.6,12.7-28.3,28.3-28.3c7.8,0,14.9,3.2,20,8.3c5.1,5.1,8.3,12.2,8.3,20v151.7c2.9-10,6.9-19.7,12.1-29.1
	c8.7-15.6,28.3-21.2,43.9-12.6c2.1,1.1,3.9,2.5,5.6,4C402.1,152.7,405.4,169.3,397.9,182.9z"/>
<g>
	<path class="st3" d="M123.2,229.7c0,60.8,39,131.5,108.1,131.5c-12,0-20.1,0-20.1,0c-69.1,0-108.1-70.7-108.1-131.5V76.6
		c0-15.6,12.7-28.3,28.3-28.3c3.5,0,6.9,0.7,10,1.8c-10.6,4.1-18.2,14.4-18.2,26.4V229.7z"/>
	<path class="st3" d="M198,119.3c-10.6,4.1-18.2,14.4-18.2,26.4v19.8c0,5.6-4.5,10.1-10.1,10.1c-5.6,0-10.1-4.5-10.1-10.1v-19.1
		c0-15.1,11.5-28,26.6-28.9C190.4,117.3,194.4,117.9,198,119.3z"/>
	<path class="st3" d="M254.5,105.2c-10.6,4.1-18.2,14.4-18.2,26.4v19.8c0,5.6-4.5,10.1-10.1,10.1c-5.6,0-10.1-4.5-10.1-10.1v-19.1
		c0-15.1,11.5-28,26.6-28.9C246.9,103.2,250.9,103.8,254.5,105.2z"/>
	<path class="st3" d="M311.1,1.8c-10.6,4.1-18.2,14.4-18.2,26.4V147c0,5.6-4.5,10.1-10.1,10.1c-5.6,0-10.1-4.5-10.1-10.1V28.9
		c0-15.1,11.5-28,26.6-28.9C303.5-0.2,307.5,0.5,311.1,1.8z"/>
	<path class="st3" d="M390.9,142.9L390.9,142.9c-18.3-11.2-50,22.7-46.7,94.8c0.2,4.3-3.2,7.8-7.5,7.8c-4.1,0-7.5-3.4-7.5-7.5v-57.5
		c2.9-10,6.9-19.7,12.1-29.1c8.7-15.6,28.3-21.2,43.9-12.6C387.4,140.1,389.2,141.4,390.9,142.9z"/>
</g>
<path class="st1" d="M366,357.9c0,5.2-2.1,10-5.5,13.4c-3.4,3.4-8.2,5.5-13.4,5.5H153.4c-10.4,0-18.9-8.5-18.9-18.9
	c0-5.2,2.1-10,5.5-13.4c3.4-3.4,8.2-5.5,13.4-5.5h193.7C357.5,339,366,347.5,366,357.9z"/>
<path class="st1" d="M365.8,487.1c-2.6,1.2-5.1,2.4-7.8,3.5h0c-4.9,2.2-9.9,4.1-15,6c-2.3,0.8-4.5,1.6-6.8,2.4
	c-12.5,4.2-25.5,7.4-38.8,9.6h-83.6c-13.1-2.1-25.8-5.3-38.1-9.3c-0.3-0.1-0.5-0.2-0.8-0.3c-10.6-3.5-20.8-7.7-30.7-12.5
	c0,0,0,0,0,0c-2.8-1.4-5.6-2.8-8.4-4.3c1-2.2,2.3-4.3,4-6c3.4-3.4,8.2-5.5,13.4-5.5h193.7C356.7,470.8,364.6,477.9,365.8,487.1z"/>
<path class="st2" d="M366,357.9c0,5.2-2.1,10-5.5,13.4c-3.4,3.4-8.2,5.5-13.4,5.5H208.5c-10.4,0-18.9-8.5-18.9-18.9
	c0-5.2,2.1-10,5.5-13.4c3.4-3.4,8.2-5.5,13.4-5.5h138.6C357.5,339,366,347.5,366,357.9z"/>
<path class="st2" d="M365.8,487.1c-2.6,1.2-5.1,2.4-7.8,3.5h0c-4.9,2.2-9.9,4.1-15,6c-2.3,0.8-4.5,1.6-6.8,2.4
	c-12.5,4.2-25.5,7.4-38.8,9.6h-83.6c-5.3-0.9-10.6-1.9-15.8-3.1c-5.2-3.4-8.6-9.2-8.6-15.8c0-5.2,2.1-10,5.5-13.4
	c3.4-3.4,8.2-5.5,13.4-5.5h138.6C356.7,470.8,364.6,477.9,365.8,487.1z"/>
<path class="st4" d="M118.3,438.1l30.6,17.7c8,4.6,18.1-1.2,18.1-10.5v-35.3c0-9.3-10.1-15.1-18.1-10.5l-30.6,17.7
	C110.3,421.8,110.3,433.4,118.3,438.1z"/>
<path class="st5" d="M167,432.2v13.1c0,9.3-10.1,15.1-18.1,10.5L118.3,438c-4-2.3-6-6.4-6-10.5c0,1.1,2,2.1,6,2.7l30.6,4.6
	C157,436.1,167,434.6,167,432.2z"/>
<path class="st4" d="M385,438.1l-30.6,17.7c-8,4.6-18.1-1.2-18.1-10.5v-35.3c0-9.3,10.1-15.1,18.1-10.5l30.6,17.7
	C393,421.8,393,433.4,385,438.1z"/>
<path class="st5" d="M336.3,432.2v13.1c0,9.3,10.1,15.1,18.1,10.5L385,438c4-2.3,6-6.4,6-10.5c0,1.1-2,2.1-6,2.7l-30.6,4.6
	C346.4,436.1,336.3,434.6,336.3,432.2z"/>
<path class="st4" d="M236.9,428.7c0,14.3-11.6,25.9-25.9,25.9c-5.7,0-11-1.9-15.3-5c-6.4-4.7-10.6-12.3-10.6-20.9
	c0-8.6,4.2-16.2,10.6-20.9c4.3-3.2,9.6-5,15.3-5C225.4,402.8,236.9,414.4,236.9,428.7z"/>
<path class="st5" d="M206.3,428.7c0,8.6-4.2,16.2-10.6,20.9c-6.4-4.7-10.6-12.3-10.6-20.9c0-8.6,4.2-16.2,10.6-20.9
	C202.2,412.5,206.3,420.1,206.3,428.7z"/>
<path class="st4" d="M315.3,428.7c0,14.3-11.6,25.9-25.9,25.9c-5.7,0-11-1.9-15.3-5c-6.4-4.7-10.6-12.3-10.6-20.9
	c0-8.6,4.2-16.2,10.6-20.9c4.3-3.2,9.6-5,15.3-5C303.7,402.8,315.3,414.4,315.3,428.7z"/>
<path class="st5" d="M284.7,428.7c0,8.6-4.2,16.2-10.6,20.9c-6.4-4.7-10.6-12.3-10.6-20.9c0-8.6,4.2-16.2,10.6-20.9
	C280.5,412.5,284.7,420.1,284.7,428.7z"/>
</svg>
