<svg height="512pt" viewBox="-1 0 512 512.0005" width="512pt" xmlns="http://www.w3.org/2000/svg"><path d="m249.898438 460.074219-21.210938-21.210938c-5.859375-5.855469-5.859375-15.351562 0-21.210937 5.855469-5.855469 15.355469-5.855469 21.210938 0l21.210937 21.210937c5.859375 5.859375 5.859375 15.355469 0 21.210938-5.855469 5.859375-15.351563 5.859375-21.210937 0zm0 0" fill="#eebf00"/><path d="m73.136719 283.3125-21.210938-21.210938c-5.859375-5.859374-5.859375-15.355468 0-21.210937 5.855469-5.859375 15.351563-5.859375 21.210938 0l21.210937 21.210937c5.859375 5.855469 5.859375 15.351563 0 21.210938s-15.355468 5.859375-21.210937 0zm0 0" fill="#ffda44"/><path d="m463.429688 225.332031-120.199219-120.195312-227.671875 156.964843 134.339844 134.339844c5.859374 5.855469 15.355468 5.855469 21.210937 0l24.375-24.375c24.378906 2.375 48.625-6.203125 66.167969-23.746094l101.777344-101.773437c5.855468-5.859375 5.855468-15.355469 0-21.214844zm0 0" fill="#f2bb88"/><path d="m345.886719 173.183594 72.46875-72.46875c13.179687-13.175782 34.546875-13.175782 47.726562 0 13.179688 13.179687 13.179688 34.546875 0 47.726562l-72.46875 72.46875c-13.179687 13.179688-34.546875 13.179688-47.726562 0-13.179688-13.179687-13.179688-34.546875 0-47.726562zm0 0" fill="#e3a76f"/><path d="m427.898438 91.171875-58.328126 58.328125c-13.179687 13.179688-34.546874 13.179688-47.726562 0s-13.179688-34.546875 0-47.726562l58.328125-58.328126c13.179687-13.175781 34.546875-13.175781 47.726563 0 13.175781 13.179688 13.175781 34.546876 0 47.726563zm0 0" fill="#f2bb88"/><path d="m366.007812 57.609375-51.261718 51.261719c-13.179688 13.179687-34.546875 13.179687-47.726563 0-13.179687-13.179688-13.179687-34.546875 0-47.726563l51.261719-51.261719c13.179688-13.175781 34.546875-13.175781 47.726562 0 13.179688 13.179688 13.179688 34.546876 0 47.726563zm0 0" fill="#f2bb88"/><path d="m378.761719 188.039062c13.175781-13.179687 13.175781-34.546874 0-47.726562l-84.847657-84.847656c-21.445312-21.445313-56.464843-21.3125-78.066406.289062l-54.15625 54.15625c-28.695312 28.699219-37.59375 71.113282-23.644531 108.488282l-48.117187 48.121093 81.3125 81.308594 96.15625-96.15625c18.308593-18.308594 29.839843-42.304687 32.699218-68.035156l2.652344-23.882813 28.285156 28.28125c13.175782 13.179688 34.542969 13.179688 47.726563.003906zm0 0" fill="#f2d1a5"/><path d="m407.753906 206.769531 44.1875-44.1875c13.179688-13.175781 34.546875-13.175781 47.726563 0 13.175781 13.179688 13.175781 34.546875 0 47.726563l-44.1875 44.1875c-13.179688 13.179687-34.546875 13.179687-47.726563 0-13.179687-13.179688-13.179687-34.546875 0-47.726563zm0 0" fill="#e3a76f"/><path d="m138.734375 507.605469-134.339844-134.339844c-5.859375-5.855469-5.859375-15.351563 0-21.210937l47.53125-47.53125c5.855469-5.855469 15.351563-5.855469 21.210938 0l134.339843 134.339843c5.855469 5.859375 5.855469 15.355469 0 21.210938l-47.53125 47.53125c-5.859374 5.859375-15.355468 5.859375-21.210937 0zm0 0" fill="#f2d1a5"/><path d="m143.839844 375.230469-68.742188 68.742187 63.636719 63.632813c5.855469 5.859375 15.351563 5.859375 21.210937 0l47.53125-47.53125c5.855469-5.855469 5.855469-15.351563 0-21.210938zm0 0" fill="#f2bb88"/><path d="m196.871094 470.679688-155.550782-155.550782c-5.859374-5.855468-5.859374-15.351562 0-21.210937l63.632813-63.632813c5.859375-5.859375 15.355469-5.859375 21.210937 0l155.550782 155.550782c5.859375 5.855468 5.859375 15.351562 0 21.210937l-63.632813 63.636719c-5.859375 5.855468-15.355469 5.855468-21.210937-.003906zm0 0" fill="#4d4d4d"/><path d="m207.476562 311.59375-84.847656 84.847656 74.242188 74.238282c5.855468 5.859374 15.351562 5.859374 21.210937 0l63.632813-63.632813c5.859375-5.859375 5.859375-15.355469 0-21.210937zm0 0" fill="#3a3a3a"/><path d="m200.402344 368.160156c-5.859375-5.859375-15.355469-5.859375-21.210938 0-5.859375 5.855469-5.859375 15.351563 0 21.210938 5.855469 5.855468 15.351563 5.855468 21.210938 0 5.855468-5.859375 5.855468-15.355469 0-21.210938zm0 0" fill="#eebf00"/><path d="m143.839844 311.59375c-5.859375-5.859375-15.355469-5.859375-21.214844 0-5.855469 5.855469-5.855469 15.355469 0 21.210938 5.859375 5.859374 15.355469 5.859374 21.214844 0 5.855468-5.855469 5.855468-15.355469 0-21.210938zm0 0" fill="#ffda44"/></svg>