<svg height="511pt" viewBox="0 -28 511.99675 511" width="511pt" xmlns="http://www.w3.org/2000/svg"><path d="m200.5625 125.761719c-36.460938-31.515625-98.78125-23.304688-141.949219 19.863281-43.167969 43.164062-51.464843 105.488281-19.949219 142.035156-1.765624-1.5-3.445312-3.089844-5.03125-4.679687-43.082031-45.089844-42.269531-116.328125 1.828126-160.421875 44.09375-44.09375 115.332031-44.90625 160.421874-1.828125 1.648438 1.589843 3.210938 3.269531 4.679688 5.03125zm0 0" fill="#f3d55b"/><path d="m220.160156 157.984375-31.691406-10.683594c-1.257812-.386719-2.621094-.210937-3.738281.484375-1.117188.691406-1.878907 1.835938-2.089844 3.136719l-4.589844 32.042969c-.195312 1.449218-1.09375 2.710937-2.402343 3.363281-1.308594.652344-2.855469.617187-4.128907-.097656l-42.992187-24.011719c-1.484375-.769531-3.269532-.667969-4.65625.273438-1.382813.941406-2.136719 2.566406-1.964844 4.230468l4.679688 42.105469c.167968 1.332031-.289063 2.667969-1.238282 3.617187-.949218.953126-2.285156 1.410157-3.617187 1.238282l-42.105469-4.675782c-1.65625-.214843-3.289062.523438-4.21875 1.90625-.933594 1.378907-1.011719 3.167969-.195312 4.625l23.921874 43.078126c.714844 1.277343.75 2.824218.097657 4.132812-.65625 1.304688-1.914063 2.207031-3.363281 2.398438l-32.046876 4.589843c-1.304687.191407-2.453124.953125-3.136718 2.082031-.683594 1.128907-.828125 2.5-.394532 3.746094l10.59375 31.691406c-11.835937-4.4375-22.734374-11.054687-32.132812-19.511718l-.085938-.085938c-31.515624-36.546875-23.304687-98.78125 19.949219-142.035156 43.253907-43.257812 105.488281-51.378906 141.949219-19.863281l.085938.089843c8.457031 9.394532 15.074218 20.292969 19.511718 32.132813zm0 0" fill="#f18d46"/><path d="m211.066406 248.996094c-.703125-1.277344-1.597656-2.4375-2.648437-3.445313-10.417969-10.414062-29.925781-7.589843-43.695313 6.179688-13.773437 13.773437-16.597656 33.371093-6.269531 43.699219 1.046875 1.03125 2.199219 1.949218 3.441406 2.734374-21.214843 12.523438-46.011719 17.589844-70.441406 14.390626-.210937.019531-.421875-.011719-.617187-.089844-6.824219-.996094-13.515626-2.742188-19.953126-5.207032l-10.59375-31.691406c-.433593-1.246094-.289062-2.617187.394532-3.746094.683594-1.128906 1.832031-1.890624 3.136718-2.082031l32.046876-4.589843c1.449218-.191407 2.707031-1.09375 3.363281-2.398438.652343-1.308594.617187-2.855469-.097657-4.132812l-23.921874-43.078126c-.816407-1.457031-.738282-3.246093.195312-4.625.929688-1.382812 2.5625-2.121093 4.21875-1.90625l42.105469 4.675782c1.332031.171875 2.667969-.285156 3.617187-1.238282.949219-.949218 1.40625-2.285156 1.238282-3.617187l-4.679688-42.105469c-.171875-1.664062.582031-3.289062 1.964844-4.230468 1.386718-.941407 3.171875-1.042969 4.65625-.273438l42.992187 24.011719c1.273438.714843 2.820313.75 4.128907.097656 1.308593-.652344 2.207031-1.914063 2.402343-3.363281l4.589844-32.042969c.210937-1.300781.972656-2.445313 2.089844-3.136719 1.117187-.695312 2.480469-.871094 3.738281-.484375l31.691406 10.683594h.085938c2.414062 6.453125 4.160156 13.136719 5.207031 19.949219v.527344c3.246094 24.460937-1.824219 49.300781-14.386719 70.535156zm0 0" fill="#e64c3c"/><path d="m366.429688 408.421875c-12.28125-1.199219-24.460938 3.167969-33.179688 11.90625-8.71875 8.734375-13.0625 20.917969-11.839844 33.203125-4.957031-1.734375-9.453125-4.570312-13.152344-8.300781l-5.828124-7.855469-17.035157-22.597656c-9.199219-11.722656-19.011719-22.949219-29.394531-33.632813l-38.136719-38.046875c-16.414062-16.652344-34.65625-31.398437-54.378906-43.960937-.546875-.292969-1.078125-.617188-1.589844-.972657-1.242187-.785156-2.394531-1.703124-3.441406-2.734374-10.328125-10.328126-7.589844-29.839844 6.269531-43.699219s33.277344-16.59375 43.695313-6.179688c1.050781 1.007813 1.945312 2.167969 2.648437 3.445313.375.496094.699219 1.027344.96875 1.585937 12.59375 19.703125 27.335938 37.941407 43.964844 54.378907l38.132812 38.136718c13.59375 12.800782 25.777344 23.480469 33.546876 29.308594l22.6875 17.035156 7.855468 5.914063c3.679688 3.6875 6.484375 8.152343 8.207032 13.066406zm0 0" fill="#7f5b53"/><path d="m358.222656 445.230469c-9.617187 9.6875-23.972656 12.921875-36.8125 8.300781-1.222656-12.285156 3.121094-24.46875 11.839844-33.203125 8.71875-8.738281 20.898438-13.105469 33.179688-11.90625 4.65625 12.820313 1.453124 27.179687-8.207032 36.808594zm0 0" fill="#59474e"/><path d="m96.03125 170.621094c3.445312 3.449218 3.445312 9.039062 0 12.484375-3.449219 3.449219-9.039062 3.449219-12.484375 0-3.449219-3.445313-3.449219-9.035157 0-12.484375 3.445313-3.445313 9.035156-3.445313 12.484375 0zm0 0" fill="#7ed09e"/><path d="m64.820312 239.285156c3.449219 3.445313 3.449219 9.035156 0 12.484375-3.445312 3.445313-9.035156 3.445313-12.484374 0-3.445313-3.449219-3.445313-9.039062 0-12.484375 3.449218-3.449218 9.039062-3.449218 12.484374 0zm0 0" fill="#7ed09e"/><path d="m164.695312 139.410156c3.445313 3.449219 3.445313 9.039063 0 12.484375-3.449218 3.449219-9.039062 3.449219-12.484374 0-3.449219-3.445312-3.449219-9.035156 0-12.484375 3.445312-3.445312 9.035156-3.445312 12.484374 0zm0 0" fill="#7ed09e"/><path d="m478.367188 282.980469c-1.589844 1.589843-3.269532 3.179687-5.035157 4.679687 31.515625-36.546875 23.304688-98.78125-19.949219-142.035156-43.253906-43.257812-105.488281-51.378906-141.945312-19.863281 1.464844-1.761719 3.027344-3.441407 4.675781-5.03125 45.089844-43.078125 116.328125-42.265625 160.421875 1.828125 44.097656 44.09375 44.910156 115.332031 1.832032 160.421875zm0 0" fill="#f3d55b"/><path d="m473.332031 287.660156-.085937.085938c-9.398438 8.457031-20.296875 15.074218-32.132813 19.511718l10.59375-31.691406c.433594-1.246094.292969-2.617187-.390625-3.746094-.683594-1.128906-1.835937-1.890624-3.140625-2.082031l-32.046875-4.589843c-1.449218-.191407-2.707031-1.09375-3.363281-2.398438-.652344-1.308594-.617187-2.855469.097656-4.132812l23.925781-43.078126c.8125-1.457031.738282-3.246093-.195312-4.625-.933594-1.382812-2.566406-2.121093-4.21875-1.90625l-42.109375 4.675782c-1.332031.171875-2.667969-.285156-3.617187-1.238282-.949219-.949218-1.40625-2.285156-1.238282-3.617187l4.679688-42.105469c.171875-1.664062-.582032-3.289062-1.964844-4.230468-1.382812-.941407-3.171875-1.042969-4.65625-.273438l-42.992188 24.011719c-1.273437.714843-2.820312.75-4.128906.097656s-2.207031-1.914063-2.402344-3.363281l-4.589843-32.042969c-.210938-1.300781-.972657-2.445313-2.089844-3.136719-1.117187-.695312-2.480469-.871094-3.734375-.484375l-31.691406 10.683594c4.433594-11.839844 11.050781-22.738281 19.507812-32.132813l.089844-.089843c36.457031-31.515625 98.777344-23.304688 141.945312 19.863281 43.167969 43.164062 51.464844 105.488281 19.949219 142.035156zm0 0" fill="#f18d46"/><path d="m353.542969 295.429688c-1.046875 1.03125-2.199219 1.949218-3.441407 2.734374-.511718.355469-1.039062.679688-1.589843.972657-29.132813 15.09375-102.3125 89.421875-121.910157 115.640625l-17.035156 22.597656-5.828125 7.855469c-3.699219 3.730469-8.195312 6.566406-13.152343 8.300781 1.894531-12.351562-2.550782-24.824219-11.828126-33.191406-8.382812-9.261719-20.832031-13.734375-33.191406-11.917969 1.722656-4.914063 4.527344-9.378906 8.207032-13.066406l7.859374-5.914063 22.6875-17.035156c26.214844-19.597656 100.542969-92.691406 115.640626-121.824219.269531-.558593.59375-1.089843.96875-1.585937.703124-1.277344 1.597656-2.4375 2.648437-3.445313 10.417969-10.414062 29.925781-7.589843 43.699219 6.179688 13.769531 13.773437 16.59375 33.371093 6.265625 43.699219zm0 0" fill="#cb9080"/><path d="m451.707031 275.566406-10.59375 31.691406c-6.4375 2.464844-13.128906 4.210938-19.949219 5.207032-.199218.078125-.410156.109375-.621093.089844-24.425781 3.199218-49.222657-1.867188-70.441407-14.390626 1.242188-.785156 2.394532-1.703124 3.441407-2.734374 10.328125-10.328126 7.59375-29.839844-6.265625-43.699219s-33.28125-16.59375-43.699219-6.179688c-1.050781 1.007813-1.945313 2.167969-2.648437 3.445313-12.5625-21.234375-17.632813-46.074219-14.386719-70.535156v-.527344c1.046875-6.8125 2.792969-13.496094 5.207031-19.949219h.089844l31.691406-10.683594c1.253906-.386719 2.617188-.210937 3.734375.484375 1.117187.691406 1.878906 1.835938 2.089844 3.136719l4.589843 32.042969c.195313 1.449218 1.09375 2.710937 2.402344 3.363281s2.855469.617187 4.128906-.097656l42.992188-24.011719c1.484375-.769531 3.273438-.667969 4.65625.273438 1.382812.941406 2.136719 2.566406 1.964844 4.230468l-4.679688 42.105469c-.167968 1.332031.289063 2.667969 1.238282 3.617187.949218.953126 2.285156 1.410157 3.617187 1.238282l42.109375-4.675782c1.652344-.214843 3.285156.523438 4.21875 1.90625.933594 1.378907 1.007812 3.167969.195312 4.625l-23.925781 43.078126c-.714843 1.277343-.75 2.824218-.097656 4.132812.65625 1.304688 1.914063 2.207031 3.363281 2.398438l32.046875 4.589843c1.304688.191407 2.457031.953125 3.140625 2.082031.683594 1.128907.824219 2.5.390625 3.746094zm0 0" fill="#e64c3c"/><path d="m190.585938 453.53125c-12.839844 4.585938-27.171876 1.359375-36.800782-8.292969-9.632812-9.648437-12.832031-23.988281-8.21875-36.816406 12.359375-1.816406 24.808594 2.65625 33.191406 11.917969 9.277344 8.367187 13.722657 20.839844 11.828126 33.191406zm0 0" fill="#7f5b53"/><path d="m428.449219 170.625c3.445312 3.445312 3.445312 9.035156 0 12.484375-3.449219 3.445313-9.035157 3.445313-12.484375 0-3.445313-3.449219-3.445313-9.039063 0-12.484375 3.449218-3.449219 9.035156-3.449219 12.484375 0zm0 0" fill="#7ed09e"/><path d="m459.65625 239.28125c3.449219 3.445312 3.449219 9.035156 0 12.484375-3.445312 3.445313-9.035156 3.445313-12.484375 0-3.445313-3.449219-3.445313-9.039063 0-12.484375 3.449219-3.449219 9.039063-3.449219 12.484375 0zm0 0" fill="#7ed09e"/><path d="m359.785156 139.421875c3.445313 3.445313 3.445313 9.035156 0 12.484375-3.449218 3.445312-9.039062 3.445312-12.484375 0-3.449219-3.449219-3.449219-9.039062 0-12.484375 3.445313-3.449219 9.035157-3.449219 12.484375 0zm0 0" fill="#7ed09e"/><g fill="#2fa8cc"><path d="m494.34375 79.945312c-3.070312.003907-5.921875-1.585937-7.53125-4.199218-23.164062-37.640625-70.167969-31.277344-70.621094-31.199219-4.816406.6875-9.28125-2.648437-9.984375-7.460937-.699219-4.816407 2.621094-9.289063 7.433594-10.007813 2.402344-.328125 59.046875-8.015625 88.277344 39.425781 1.675781 2.730469 1.738281 6.15625.167969 8.949219-1.574219 2.792969-4.539063 4.511719-7.742188 4.492187zm0 0"/><path d="m503.171875 35.808594c-2.34375 0-4.585937-.929688-6.242187-2.585938-10.472657-9.316406-23.886719-14.652344-37.898438-15.070312-4.875 0-8.824219-3.949219-8.824219-8.828125 0-4.875 3.949219-8.824219 8.824219-8.824219 18.683594.460938 36.570312 7.648438 50.378906 20.238281 2.527344 2.527344 3.28125 6.324219 1.914063 9.621094-1.367188 3.296875-4.582031 5.449219-8.152344 5.449219zm0 0"/><path d="m17.652344 79.945312c-3.195313 0-6.140625-1.730468-7.699219-4.523437-1.558594-2.789063-1.488281-6.207031.1875-8.929687 29.203125-47.4375 85.832031-39.722657 88.277344-39.421876 4.738281.785157 7.976562 5.214844 7.289062 9.96875-.6875 4.753907-5.046875 8.085938-9.816406 7.5-1.921875-.265624-47.667969-6.179687-70.679687 31.195313-1.613282 2.628906-4.476563 4.222656-7.558594 4.210937zm0 0"/><path d="m8.824219 35.808594c-3.566407 0-6.785157-2.152344-8.152344-5.449219s-.609375-7.09375 1.914063-9.621094c13.808593-12.589843 31.695312-19.777343 50.378906-20.238281 4.875 0 8.828125 3.949219 8.828125 8.824219 0 4.878906-3.953125 8.828125-8.828125 8.828125-14.019532.464844-27.441406 5.792968-37.960938 15.070312-1.636718 1.640625-3.859375 2.570313-6.179687 2.585938zm0 0"/><path d="m87.214844 371.820312c-30.957032 1.140626-60.230469-14.085937-77.074219-40.085937-1.863281-2.683594-2.089844-6.175781-.589844-9.082031 1.5-2.902344 4.480469-4.738282 7.746094-4.777344 3.269531-.035156 6.289063 1.738281 7.851563 4.609375 23.164062 37.640625 70.179687 31.285156 70.621093 31.195313 4.816407-.6875 9.28125 2.652343 9.984375 7.464843s-2.621094 9.289063-7.433594 10.007813c-3.683593.46875-7.394531.691406-11.105468.667968zm0 0"/><path d="m52.964844 397.738281c-18.683594-.460937-36.570313-7.648437-50.378906-20.238281-3.347657-3.464844-3.296876-8.972656.105468-12.375 3.40625-3.40625 8.910156-3.453125 12.375-.109375 10.472656 9.316406 23.886719 14.652344 37.898438 15.070313 4.875 0 8.828125 3.949218 8.828125 8.828124 0 4.875-3.953125 8.824219-8.828125 8.824219zm0 0"/><path d="m424.78125 371.820312c-3.730469.03125-7.464844-.191406-11.167969-.660156-4.738281-.785156-7.976562-5.21875-7.289062-9.972656s5.046875-8.085938 9.816406-7.496094c1.957031.28125 47.667969 6.179688 70.679687-31.199218 1.5625-2.871094 4.582032-4.640626 7.851563-4.605469 3.265625.035156 6.246094 1.871093 7.746094 4.773437 1.5 2.90625 1.273437 6.398438-.589844 9.085938-16.839844 25.984375-46.101563 41.207031-77.046875 40.074218zm0 0"/><path d="m459.03125 397.738281c-4.875 0-8.824219-3.949219-8.824219-8.824219 0-4.878906 3.949219-8.828124 8.824219-8.828124 14.019531-.464844 27.441406-5.792969 37.960938-15.070313 3.464843-3.34375 8.96875-3.296875 12.375.109375 3.402343 3.402344 3.453124 8.910156.105468 12.375-13.824218 12.605469-31.734375 19.792969-50.441406 20.238281zm0 0"/></g></svg>