<svg height="512pt" viewBox="-61 0 512 512" width="512pt" xmlns="http://www.w3.org/2000/svg"><path d="m307.96875 122.285156c-18.910156-11.851562-67.96875-51.519531-67.96875-92.285156v-15c0-8.289062-6.710938-15-15-15s-15 6.710938-15 15v392c0 8.289062 6.710938 15 15 15s15-6.710938 15-15v-305.414062c22.628906 27.335937 50.085938 44.898437 52.03125 46.128906 18.910156 11.851562 67.96875 52.519531 67.96875 93.285156 0 48.910156-67.296875 92.875-67.984375 93.300781-7 4.410157-9.109375 13.667969-4.714844 20.667969 4.445313 7.070312 13.722657 9.101562 20.667969 4.746094 3.339844-2.109375 82.03125-53.179688 82.03125-118.714844s-78.691406-116.605469-82.03125-118.714844zm0 0" fill="#714c2f"/><path d="m240 407.5c0 13.199219-3 25.800781-8.402344 37.5l-111.597656 30-111.597656-30c-5.402344-11.699219-8.402344-24.300781-8.402344-37.5s3-25.800781 8.402344-37.5l111.597656-28.199219 7.5-1.800781 104.097656 30c5.402344 11.699219 8.402344 24.300781 8.402344 37.5zm0 0" fill="#ffda2d"/><path d="m240 407.5c0 13.199219-3 25.800781-8.402344 37.5l-111.597656 30v-133.199219l7.5-1.800781 104.097656 30c5.402344 11.699219 8.402344 24.300781 8.402344 37.5zm0 0" fill="#eebf00"/><path d="m231.597656 445c-17.097656 39.300781-60.597656 67-111.597656 67s-94.5-27.699219-111.597656-67zm0 0" fill="#ff641a"/><path d="m120 445h111.597656c-17.097656 39.300781-60.597656 67-111.597656 67zm0 0" fill="#f03800"/><path d="m231.597656 370h-223.195312c17.097656-39.300781 60.597656-68 111.597656-68s94.5 28.699219 111.597656 68zm0 0" fill="#7fe881"/><path d="m231.597656 370h-111.597656v-68c51 0 94.5 28.699219 111.597656 68zm0 0" fill="#5bc980"/></svg>