<svg height="512pt" viewBox="0 -69 512 512" width="512pt" xmlns="http://www.w3.org/2000/svg"><path d="m496.855469 55.769531h-481.710938c-8.363281 0-15.144531 6.78125-15.144531 15.144531v260.308594c0 23.75 19.324219 43.074219 43.074219 43.074219h425.851562c23.75 0 43.074219-19.324219 43.074219-43.074219v-260.308594c0-8.367187-6.78125-15.144531-15.144531-15.144531zm0 0" fill="#e1e1f0"/><path d="m496.855469 55.769531h-243.265625v318.527344h215.335937c23.75 0 43.074219-19.324219 43.074219-43.074219v-260.308594c0-8.367187-6.78125-15.144531-15.144531-15.144531zm0 0" fill="#bec3d2"/><path d="m381.664062 107.148438c-59.488281 0-107.882812 48.398437-107.882812 107.882812 0 59.488281 48.398438 107.882812 107.882812 107.882812 59.488282 0 107.882813-48.394531 107.882813-107.882812 0-59.484375-48.394531-107.882812-107.882813-107.882812zm0 0" fill="#1f5f8f"/><path d="m381.664062 107.148438v215.765624c59.488282 0 107.882813-48.394531 107.882813-107.882812 0-59.484375-48.394531-107.882812-107.882813-107.882812zm0 0" fill="#13496b"/><path d="m381.664062 172.632812c-23.378906 0-42.398437 19.019532-42.398437 42.398438s19.019531 42.398438 42.398437 42.398438c23.378907 0 42.398438-19.019532 42.398438-42.398438s-19.019531-42.398438-42.398438-42.398438zm0 0" fill="#13496b"/><path d="m381.664062 172.632812v84.796876c23.378907 0 42.398438-19.019532 42.398438-42.398438s-19.019531-42.398438-42.398438-42.398438zm0 0" fill="#15283b"/><path d="m121.167969 101.246094h-48.570313c-8.363281 0-15.144531 6.777344-15.144531 15.140625v48.570312c0 8.363281 6.78125 15.144531 15.144531 15.144531h48.570313c8.363281 0 15.140625-6.78125 15.140625-15.144531v-48.570312c0-8.363281-6.777344-15.140625-15.140625-15.140625zm0 0" fill="#ffcc3c"/><path d="m468.925781 0h-425.851562c-23.789063 0-43.074219 19.285156-43.074219 43.074219v42.980469h512v-42.980469c0-23.789063-19.285156-43.074219-43.074219-43.074219zm0 0" fill="#1f5f8f"/><path d="m468.925781 0h-215.335937v86.054688h258.410156v-42.980469c0-23.789063-19.285156-43.074219-43.074219-43.074219zm0 0" fill="#13496b"/><path d="m184.65625 0h142.6875v86.054688h-142.6875zm0 0" fill="#96e8ff"/><path d="m253.589844 0h73.753906v86.054688h-73.753906zm0 0" fill="#87c7ff"/><path d="m96.882812 323.394531c7.917969 0 15.507813-6.964843 15.140626-15.144531-.367188-8.203125-6.652344-15.140625-15.140626-15.140625-7.921874 0-15.511718 6.964844-15.144531 15.140625.367188 8.207031 6.652344 15.144531 15.144531 15.144531zm0 0" fill="#73df6e"/><path d="m143.527344 323.394531c7.921875 0 15.507812-6.964843 15.144531-15.144531-.367187-8.203125-6.65625-15.140625-15.144531-15.140625-7.921875 0-15.511719 6.964844-15.144532 15.140625.367188 8.207031 6.65625 15.144531 15.144532 15.144531zm0 0" fill="#f93d47"/><path d="m121.167969 195.785156h-48.570313c-8.363281 0-15.144531 6.78125-15.144531 15.144532v48.570312c0 8.363281 6.78125 15.144531 15.144531 15.144531h48.570313c8.363281 0 15.140625-6.78125 15.140625-15.144531v-48.570312c0-8.363282-6.777344-15.144532-15.140625-15.144532zm0 0" fill="#ffcc3c"/><path d="m190.171875 323.394531c7.921875 0 15.511719-6.964843 15.144531-15.144531-.367187-8.203125-6.65625-15.140625-15.144531-15.140625-7.921875 0-15.507813 6.964844-15.140625 15.140625.367188 8.207031 6.652344 15.144531 15.140625 15.144531zm0 0" fill="#ff7045"/><path d="m190.171875 274.640625c-8.363281 0-15.140625-6.777344-15.140625-15.140625v-143.113281c0-8.363281 6.777344-15.140625 15.140625-15.140625s15.144531 6.777344 15.144531 15.140625v143.113281c0 8.363281-6.78125 15.140625-15.144531 15.140625zm0 0" fill="#13496b"/><path d="m214.457031 125.53125h-48.570312c-8.363281 0-15.140625 6.777344-15.140625 15.140625s6.777344 15.144531 15.140625 15.144531h48.570312c8.363281 0 15.144531-6.78125 15.144531-15.144531s-6.78125-15.140625-15.144531-15.140625zm0 0" fill="#bec3d2"/><g fill="#ffa426"><path d="m121.167969 195.785156h-24.285157v78.855469h24.285157c8.363281 0 15.140625-6.777344 15.140625-15.140625v-48.570312c0-8.363282-6.777344-15.144532-15.140625-15.144532zm0 0"/><path d="m121.167969 101.246094h-24.285157v78.855468h24.285157c8.363281 0 15.140625-6.78125 15.140625-15.144531v-48.570312c0-8.363281-6.777344-15.140625-15.140625-15.140625zm0 0"/></g></svg>