<svg height="512pt" viewBox="-1 0 512 512.00128" width="512pt" xmlns="http://www.w3.org/2000/svg"><path d="m302.082031 271.941406c-.089843 4.070313-1.832031 7.929688-4.8125 10.691406l-61.027343 56.378907-22.050782 20.371093-65.378906 60.386719-22.050781 20.363281-67.089844 61.976563c-2.882813 2.660156-6.542969 3.980469-10.179687 3.980469-3.871094 0-7.730469-1.488282-10.660157-4.4375l-28.632812-28.910156c-5.609375-5.660157-5.808594-14.722657-.457031-20.628907l61.578124-67.941406 32.265626 10.332031-12.085938-32.582031 59.832031-66 30.332031 6.859375-10.152343-29.121094 55.648437-61.398437c2.769532-3.050781 6.660156-4.828125 10.78125-4.917969 4.089844-.101562 8.089844 1.507812 10.988282 4.4375l48.8125 49.269531c2.867187 2.890625 4.429687 6.820313 4.339843 10.890625zm0 0" fill="#00ddc1"/><path d="m303.101562 302.777344c-3.859374 0-7.722656-1.484375-10.652343-4.445313l-80.84375-81.609375c-5.832031-5.886718-5.785157-15.382812.097656-21.210937 5.886719-5.832031 15.382813-5.789063 21.214844.097656l80.84375 81.609375c5.828125 5.886719 5.785156 15.382812-.101563 21.214844-2.925781 2.898437-6.742187 4.34375-10.558594 4.34375zm0 0" fill="#4a7aff"/><path d="m55.34375 512c-3.863281 0-7.726562-1.480469-10.65625-4.441406l-40.34375-40.726563c-5.828125-5.882812-5.785156-15.382812.101562-21.210937 5.882813-5.832032 15.382813-5.789063 21.210938.097656l40.34375 40.726562c5.828125 5.882813 5.785156 15.382813-.101562 21.210938-2.921876 2.898438-6.742188 4.34375-10.554688 4.34375zm0 0" fill="#4a7aff"/><path d="m255.875 177.683594c-3.3125 0-6.644531-1.089844-9.417969-3.332032-6.445312-5.207031-7.449219-14.648437-2.242187-21.09375l16.867187-20.886718-7.480469-25.890625c-1.359374-4.707031-.335937-9.78125 2.742188-13.589844l16.867188-20.878906-7.480469-25.886719c-1.359375-4.707031-.339844-9.78125 2.742187-13.589844l21.777344-26.960937c5.207031-6.445313 14.648438-7.449219 21.097656-2.242188 6.441406 5.207031 7.445313 14.648438 2.238282 21.09375l-16.867188 20.878907 7.484375 25.882812c1.359375 4.707031.335937 9.78125-2.742187 13.59375l-16.867188 20.878906 7.480469 25.894532c1.359375 4.703124.335937 9.777343-2.742188 13.585937l-21.78125 26.964844c-2.964843 3.671875-7.300781 5.578125-11.675781 5.578125zm0 0" fill="#f30051"/><path d="m376.078125 262.710938c-1.417969 0-2.84375-.199219-4.238281-.609376l-33.085938-9.742187c-7.945312-2.339844-12.492187-10.679687-10.152344-18.625 2.339844-7.949219 10.683594-12.492187 18.625-10.152344l25.457032 7.496094 20.574218-16.933594c3.839844-3.160156 8.996094-4.210937 13.769532-2.808593l25.453125 7.496093 20.5625-16.929687c3.84375-3.160156 9-4.214844 13.773437-2.808594l33.082032 9.746094c7.945312 2.339844 12.492187 10.679687 10.148437 18.625-2.339844 7.949218-10.683594 12.488281-18.625 10.152344l-25.453125-7.496094-20.566406 16.929687c-3.839844 3.160157-8.996094 4.214844-13.769532 2.808594l-25.453124-7.496094-20.570313 16.929688c-2.71875 2.238281-6.097656 3.417969-9.53125 3.417969zm0 0" fill="#be003b"/><path d="m325.851562 191.660156c-3.8125 0-7.628906-1.445312-10.554687-4.34375-5.886719-5.832031-5.929687-15.328125-.101563-21.214844 8.730469-8.8125 16.195313-11.109374 21.648438-12.785156 3.929688-1.207031 5.722656-1.761718 9.152344-5.222656 3.457031-3.488281 4.007812-5.320312 5.21875-9.328125 1.652344-5.476563 3.917968-12.980469 12.625-21.765625 8.726562-8.8125 16.195312-11.109375 21.644531-12.789062 3.933594-1.207032 5.726563-1.761719 9.160156-5.226563 3.453125-3.488281 4.007813-5.316406 5.21875-9.328125 1.652344-5.476562 3.917969-12.980469 12.625-21.769531 5.828125-5.882813 15.328125-5.929688 21.210938-.097657 5.886719 5.828126 5.933593 15.328126.101562 21.210938-3.457031 3.488281-4.007812 5.320312-5.21875 9.328125-1.652343 5.480469-3.921875 12.980469-12.625 21.769531-8.730469 8.8125-16.195312 11.109375-21.648437 12.789063-3.929688 1.207031-5.722656 1.757812-9.15625 5.226562-3.457032 3.488281-4.007813 5.316407-5.21875 9.324219-1.652344 5.476562-3.917969 12.980469-12.625 21.765625-8.726563 8.8125-16.191406 11.109375-21.644532 12.789063-3.929687 1.207031-5.722656 1.757812-9.15625 5.222656-2.929687 2.960937-6.792968 4.445312-10.65625 4.445312zm0 0" fill="#ff9f00"/><path d="m208.792969 124.203125c-6.710938 6.777344-17.589844 6.777344-24.300781 0-6.707032-6.773437-6.707032-17.753906 0-24.527344 6.710937-6.773437 17.589843-6.773437 24.300781 0 6.710937 6.773438 6.710937 17.753907 0 24.527344zm0 0" fill="#80dbff"/><path d="m364.160156 62.921875c-6.710937 6.773437-17.589844 6.773437-24.300781 0s-6.710937-17.753906 0-24.527344c6.710937-6.773437 17.589844-6.773437 24.300781 0 6.707032 6.773438 6.707032 17.753907 0 24.527344zm0 0" fill="#80dbff"/><path d="m429.9375 188.71875c-6.710938 6.773438-17.589844 6.773438-24.300781 0-6.707031-6.773438-6.707031-17.753906 0-24.527344 6.710937-6.773437 17.589843-6.773437 24.300781 0 6.710938 6.773438 6.710938 17.753906 0 24.527344zm0 0" fill="#4ab8f7"/><path d="m385.328125 326.941406c-6.710937 6.773438-17.589844 6.773438-24.300781 0-6.710938-6.773437-6.710938-17.753906 0-24.527344 6.710937-6.773437 17.589844-6.773437 24.300781 0 6.707031 6.773438 6.707031 17.753907 0 24.527344zm0 0" fill="#4ab8f7"/><g fill="#00ab94"><path d="m107.023438 404.308594 41.789062 15.460937 65.378906-60.386719-19.378906-42.859374zm0 0"/><path d="m38.214844 473.117188s24.410156 26.808593 31.53125 19.6875l57.015625-52.675782-9.933594-45.625zm0 0"/><path d="m194.8125 316.523438 41.429688 22.488281 50.386718-46.550781-18.171875-49.585938zm0 0"/></g><path d="m313.660156 298.433594c-2.929687 2.898437-6.738281 4.347656-10.558594 4.347656-3.859374 0-7.722656-1.488281-10.652343-4.449219l-39.539063-39.910156 21.210938-21.210937 39.640625 40.011718c5.828125 5.878906 5.777343 15.378906-.101563 21.210938zm0 0" fill="#0053bf"/><path d="m336.507812 187.21875c3.433594-3.464844 5.226563-4.019531 9.15625-5.226562 5.453126-1.675782 12.917969-3.972657 21.644532-12.785157 8.707031-8.789062 10.972656-16.292969 12.625-21.769531 1.210937-4.007812 1.761718-5.835938 5.21875-9.324219 3.433594-3.464843 5.226562-4.015625 9.15625-5.226562 5.453125-1.679688 12.917968-3.976563 21.648437-12.789063 8.703125-8.789062 10.972657-16.289062 12.625-21.765625 1.210938-4.011719 1.761719-5.839843 5.21875-9.328125 4.0625-4.105468 5.265625-9.957031 3.632813-15.105468l-116.8125 116.808593c1.6875.628907 3.457031.953125 5.230468.953125 3.863282 0 7.726563-1.484375 10.65625-4.441406zm0 0" fill="#f77e00"/><path d="m236.242188 339.011719-22.050782 20.371093-62.859375-63.460937 20.179688-22.261719zm0 0" fill="#fff04a"/><path d="m183.21875 328.113281 30.972656 31.269531 22.050782-20.371093-31.808594-32.113281zm0 0" fill="#f2d813"/><path d="m148.8125 419.769531-22.050781 20.363281-55.441407-55.960937 20.179688-22.25zm0 0" fill="#fff04a"/><path d="m99.109375 412.222656 27.652344 27.910156 22.050781-20.363281-28.492188-28.757812zm0 0" fill="#f2d813"/><path d="m65.902344 507.660156c-2.929688 2.890625-6.742188 4.339844-10.5625 4.339844-3.859375 0-7.71875-1.480469-10.648438-4.4375l-20.359375-20.5625 21.207031-21.207031 20.460938 20.648437c1.820312 1.839844 3.070312 4.039063 3.742188 6.359375 1.488281 5.109375.199218 10.851563-3.839844 14.859375zm0 0" fill="#0053bf"/></svg>