<svg id="Layer_2" data-name="Layer 2" xmlns="http://www.w3.org/2000/svg" viewBox="0 0 310.76 36.53"><defs><style>.cls-1{fill:none;stroke:#000;stroke-width:3px;}.cls-1,.cls-2{stroke-miterlimit:10;}.cls-2{fill:red;stroke:blue;stroke-width:0.25px;}</style></defs><title>lettering_logo</title><path d="M22,37.65c-.12.26-.23.41-.35.45a1.32,1.32,0,0,1-.51.07H19.78a1.11,1.11,0,0,1-.51-.09.76.76,0,0,1-.31-.43L6.75,8.32a.66.66,0,0,1,0-.64.69.69,0,0,1,.65-.3H9.59a.81.81,0,0,1,.49.13,1.15,1.15,0,0,1,.37.43,6,6,0,0,1,.37.84c.12.35.3.79.53,1.31l9.12,22.53,9.16-22.53.51-1.31c.15-.36.27-.64.37-.84a1.11,1.11,0,0,1,.34-.43.94.94,0,0,1,.54-.13h2.19c.49,0,.74.19.74.56a1.31,1.31,0,0,1-.09.38Z" transform="translate(-6.67 -2.79)"/><path d="M53,37.43l-9.76-22.5c-.22.15-.17.6-.43.71a3.86,3.86,0,0,1-.58,1.27,4.91,4.91,0,0,1-.62,1.83l6.83,17c.4,1,.69,1.74.86,2.1a.93.93,0,0,0,.91.54h2.19q.69,0,.69-.54A1.26,1.26,0,0,0,53,37.43Z" transform="translate(-6.67 -2.79)"/><path d="M121.65,6.43a15.34,15.34,0,0,1,6.15,1.25,16,16,0,0,1,5.06,3.42,16.3,16.3,0,0,1,3.43,5,15.87,15.87,0,0,1,0,12.3,16.3,16.3,0,0,1-3.43,5.05,16,16,0,0,1-5.06,3.42,15.34,15.34,0,0,1-6.15,1.25,15.55,15.55,0,0,1-6.21-1.25,15.79,15.79,0,0,1-5-3.42,16.22,16.22,0,0,1-3.4-5.05,15.17,15.17,0,0,1-1.25-6.15A15.17,15.17,0,0,1,107,16.15a16.22,16.22,0,0,1,3.4-5,15.79,15.79,0,0,1,5-3.42A15.55,15.55,0,0,1,121.65,6.43Zm0,28.25a11.82,11.82,0,0,0,4.8-1,12.45,12.45,0,0,0,6.58-6.6,12.1,12.1,0,0,0,1-4.79,12.27,12.27,0,0,0-1-4.84,12.41,12.41,0,0,0-6.58-6.58,12.56,12.56,0,0,0-9.63,0,12.48,12.48,0,0,0-3.94,2.65,12.36,12.36,0,0,0-2.64,3.93,12.09,12.09,0,0,0-1,4.84,11.92,11.92,0,0,0,1,4.79A12.29,12.29,0,0,0,112.85,31a12.51,12.51,0,0,0,3.94,2.66A11.86,11.86,0,0,0,121.62,34.68Z" transform="translate(-6.67 -2.79)"/><path d="M215.37,6.43a15.42,15.42,0,0,1,6.16,1.25A16.11,16.11,0,0,1,230,16.15a15.75,15.75,0,0,1,0,12.3,16.11,16.11,0,0,1-8.48,8.47,15.9,15.9,0,0,1-12.36,0,16,16,0,0,1-5-3.42,16.39,16.39,0,0,1-3.4-5.05,15.75,15.75,0,0,1,0-12.3,16.39,16.39,0,0,1,3.4-5,16,16,0,0,1,5-3.42A15.47,15.47,0,0,1,215.37,6.43Zm0,28.25a11.77,11.77,0,0,0,4.79-1A12.51,12.51,0,0,0,224.08,31a12.29,12.29,0,0,0,2.64-3.94,11.92,11.92,0,0,0,1-4.79,12.09,12.09,0,0,0-1-4.84,12.36,12.36,0,0,0-2.64-3.93,12.48,12.48,0,0,0-3.94-2.65,12.09,12.09,0,0,0-4.79-1,12.26,12.26,0,0,0-4.84,1,12.41,12.41,0,0,0-6.58,6.58,12.27,12.27,0,0,0-1,4.84,12.1,12.1,0,0,0,1,4.79,12.45,12.45,0,0,0,6.58,6.6A11.94,11.94,0,0,0,215.35,34.68Z" transform="translate(-6.67 -2.79)"/><path d="M260.75,7.34a.84.84,0,0,1,.65.19.68.68,0,0,1,.17.49l-.21,29.5c0,.43-.26.65-.79.65h-2.78L238.7,12.37v16l7.52.05c.43,0,.65.23.65.68v2.2a.8.8,0,0,1-.17.51.62.62,0,0,1-.52.22L235.77,32c-.43,0-.64-.18-.64-.55V7.89c0-.45.24-.68.73-.68h3a.8.8,0,0,1,.68.34l18.28,24.64L258,8a.67.67,0,0,1,.66-.64h2.13ZM250,34.55c.43,0,.65.23.65.69v2.2a.73.73,0,0,1-.2.51.6.6,0,0,1-.49.22H235.77a.57.57,0,0,1-.64-.65V35.33a.83.83,0,0,1,.17-.56.63.63,0,0,1,.52-.22Z" transform="translate(-6.67 -2.79)"/><path d="M295.8,37.48V8c0-.4.23-.6.68-.6h20.31a.57.57,0,0,1,.64.65v2.18q0,.78-.69.78H299.37v5.12h13.8a.6.6,0,0,1,.48.21.85.85,0,0,1,.17.52V19a.8.8,0,0,1-.17.51.58.58,0,0,1-.48.22h-13.8v5.33h13.8c.43,0,.65.23.65.69v2.19a.88.88,0,0,1-.17.5.59.59,0,0,1-.48.23h-13.8v5.89h17.24a.8.8,0,0,1,.56.2.71.71,0,0,1,.22.54v2.14a.65.65,0,0,1-.73.74H296.48A.61.61,0,0,1,295.8,37.48Z" transform="translate(-6.67 -2.79)"/><path d="M59.53,37.39,47.32,8.07a.76.76,0,0,0-.3-.43,1.18,1.18,0,0,0-.52-.09H45.12a1.11,1.11,0,0,0-.51.09.89.89,0,0,0-.35.43l-6,14.4h0L32.05,37.39a1.21,1.21,0,0,0-.08.39c0,.37.24.56.73.56h2.19a1,1,0,0,0,.52-.13,1.05,1.05,0,0,0,.36-.45c.1-.22.22-.5.35-.84s.3-.79.53-1.33L45.81,13.1,55,35.59c.4,1.09.69,1.82.86,2.19a.91.91,0,0,0,.9.56h2.2c.46,0,.68-.19.68-.56A1.21,1.21,0,0,0,59.53,37.39Z" transform="translate(-6.67 -2.79)"/><path d="M91.21,36.91l-1.68,1.18A.43.43,0,0,1,89,38l-6.22-8.18-.86-1.14L66.32,8.25a.39.39,0,0,1,.08-.56l1.68-1.18a.42.42,0,0,1,.58.09L83.6,26.23l1.83,2.4,5.87,7.72A.4.4,0,0,1,91.21,36.91Z" transform="translate(-6.67 -2.79)"/><path d="M98,6.5V7.92l-2.91,4.3L84.72,27.59l-1.2,1.76a.41.41,0,0,1-.57.11L82,28.83l-.85-1.18,1.73-2.56L95.1,7,96,5.65a.42.42,0,0,1,.58-.11Z" transform="translate(-6.67 -2.79)"/><path d="M99.55,5.79v32a.46.46,0,0,1-.5.42h-2.5a.47.47,0,0,1-.5-.42v-32a.47.47,0,0,1,.5-.41h2.5A.46.46,0,0,1,99.55,5.79Z" transform="translate(-6.67 -2.79)"/><path d="M86.2,37.33l-1.91.84a.54.54,0,0,1-.62-.13l-14-17.79-.83-1-2-2.61L67,14.39l.71-.32.77.06.73.93.82,1L86.35,36.85A.3.3,0,0,1,86.2,37.33Z" transform="translate(-6.67 -2.79)"/><path d="M68.57,14.4V37.78a.46.46,0,0,1-.5.39h-2.5a.46.46,0,0,1-.5-.39V14.4a.46.46,0,0,1,.5-.39h2.5A.46.46,0,0,1,68.57,14.4Z" transform="translate(-6.67 -2.79)"/><path d="M269.3,8.2V38.38c0,.21-.22.37-.5.37h-2.49c-.27,0-.5-.16-.5-.37V8.2c0-.2.23-.36.5-.36h2.49a.52.52,0,0,1,.44.19A.27.27,0,0,1,269.3,8.2Z" transform="translate(-6.67 -2.79)"/><path class="cls-1" d="M291.4,23.36a13.75,13.75,0,0,1-13.75,13.86h-1.51c-1.17,0-1.78,0-2.76,0v-27c-.08-.21.73-1.34,1-1.41s2.47-.07,2.76-.07C284,8.58,291.4,15.75,291.4,23.36Z" transform="translate(-6.67 -2.79)"/><path d="M274.65,10.63l-8.72.07c-.06,0-.12-.22-.12-.5V7.71c0-.27.06-.5.12-.5h10c.07,0,.12.23.12.5l.18.43" transform="translate(-6.67 -2.79)"/><path class="cls-2" d="M242.81,39.48" transform="translate(-6.67 -2.79)"/><path d="M168.54,30.73l-22.19-18a.46.46,0,0,1,0-.62L148,10.13a.45.45,0,0,1,.6-.15l23.65,19.24" transform="translate(-6.67 -2.79)"/><path d="M172.82,29.64l-25.93,9.67a.46.46,0,0,1-.51-.35l-.87-2.34a.46.46,0,0,1,.17-.6l24-8.88" transform="translate(-6.67 -2.79)"/><path d="M165.62,30.94l-1.37,1.67a.43.43,0,0,1-.59.08L142,15.24h0l-2.33-1.89a.4.4,0,0,1-.13-.43h0l3.06-1.08,2.76,2.23,20.2,16.29A.42.42,0,0,1,165.62,30.94Z" transform="translate(-6.67 -2.79)"/><path d="M142.61,15.56l25.28-9.47c.18-.07.25-.35.16-.6l-.88-2.34c-.1-.25-.33-.41-.52-.34l-24,9" transform="translate(-6.67 -2.79)"/></svg>